<svg width="36" height="28" viewBox="0 0 36 28" fill="none" xmlns="http://www.w3.org/2000/svg">
<path d="M32.286 0.285706C33.0717 0.285706 33.7443 0.565468 34.3038 1.12499C34.8634 1.68452 35.1431 2.35713 35.1431 3.14285V24.8571C35.1431 25.6428 34.8634 26.3155 34.3038 26.875C33.7443 27.4345 33.0717 27.7143 32.286 27.7143H3.71456C2.92885 27.7143 2.25623 27.4345 1.69671 26.875C1.13718 26.3155 0.857422 25.6428 0.857422 24.8571V3.14285C0.857422 2.35713 1.13718 1.68452 1.69671 1.12499C2.25623 0.565468 2.92885 0.285706 3.71456 0.285706H32.286ZM3.71456 2.57142C3.5598 2.57142 3.42587 2.62799 3.31278 2.74113C3.19968 2.85418 3.14314 2.98809 3.14314 3.14285V7.14285H32.8574V3.14285C32.8574 2.98818 32.8008 2.85426 32.6877 2.74108C32.5747 2.62797 32.4408 2.57142 32.286 2.57142H3.71456ZM32.286 25.4286C32.4407 25.4286 32.5746 25.372 32.6878 25.2588C32.8009 25.1458 32.8574 25.0119 32.8574 24.8571V14H3.14314V24.8571C3.14314 25.012 3.19969 25.1459 3.31279 25.2589C3.42588 25.372 3.5598 25.4286 3.71456 25.4286H32.286ZM5.42885 23.1428V20.8571H10.0003V23.1428H5.42885ZM12.286 23.1428V20.8571H19.1431V23.1428H12.286Z" fill="#34ADDC"/>
</svg>
